<svg width="200" height="251" viewBox="0 0 200 251" fill="none" xmlns="http://www.w3.org/2000/svg">
<path d="M133.333 169.417V44.5834L179.167 107L133.333 169.417ZM141.667 136.871L163.542 107L141.667 77.1292V136.871Z" fill="#1D1B20"/>
<path d="M83.3333 169.417V44.5834L129.167 107L83.3333 169.417ZM91.6666 136.871L113.542 107L91.6666 77.1292V136.871Z" fill="#1D1B20"/>
<path d="M33.3333 169.417V44.5834L79.1666 107L33.3333 169.417ZM41.6666 136.871L63.5416 107L41.6666 77.1292V136.871Z" fill="#1D1B20"/>
<path d="M33.5909 238V191.455H51.0455C54.6212 191.455 57.6212 192.121 60.0455 193.455C62.4849 194.788 64.3258 196.621 65.5682 198.955C66.8258 201.273 67.4545 203.909 67.4545 206.864C67.4545 209.848 66.8258 212.5 65.5682 214.818C64.3106 217.136 62.4545 218.962 60 220.295C57.5455 221.614 54.5227 222.273 50.9318 222.273H39.3636V215.341H49.7955C51.8864 215.341 53.5985 214.977 54.9318 214.25C56.2652 213.523 57.25 212.523 57.8864 211.25C58.5379 209.977 58.8636 208.515 58.8636 206.864C58.8636 205.212 58.5379 203.758 57.8864 202.5C57.25 201.242 56.2576 200.265 54.9091 199.568C53.5758 198.856 51.8561 198.5 49.75 198.5H42.0227V238H33.5909ZM83.8352 238.705C81.6231 238.705 79.6307 238.311 77.858 237.523C76.1004 236.72 74.7064 235.538 73.6761 233.977C72.661 232.417 72.1534 230.492 72.1534 228.205C72.1534 226.235 72.517 224.606 73.2443 223.318C73.9716 222.03 74.964 221 76.2216 220.227C77.4792 219.455 78.8958 218.871 80.4716 218.477C82.0625 218.068 83.7064 217.773 85.4034 217.591C87.4489 217.379 89.108 217.189 90.3807 217.023C91.6534 216.841 92.5777 216.568 93.1534 216.205C93.7443 215.826 94.0398 215.242 94.0398 214.455V214.318C94.0398 212.606 93.5322 211.28 92.517 210.341C91.5019 209.402 90.0398 208.932 88.1307 208.932C86.1155 208.932 84.517 209.371 83.3352 210.25C82.1686 211.129 81.3807 212.167 80.9716 213.364L73.2898 212.273C73.8958 210.152 74.8958 208.379 76.2898 206.955C77.6837 205.515 79.3883 204.439 81.4034 203.727C83.4186 203 85.6458 202.636 88.0852 202.636C89.767 202.636 91.4413 202.833 93.108 203.227C94.7746 203.621 96.2973 204.273 97.6761 205.182C99.0549 206.076 100.161 207.295 100.994 208.841C101.843 210.386 102.267 212.318 102.267 214.636V238H94.358V233.205H94.0852C93.5852 234.174 92.8807 235.083 91.9716 235.932C91.0777 236.765 89.9489 237.439 88.5852 237.955C87.2367 238.455 85.6534 238.705 83.8352 238.705ZM85.9716 232.659C87.6231 232.659 89.0549 232.333 90.267 231.682C91.4792 231.015 92.411 230.136 93.0625 229.045C93.7292 227.955 94.0625 226.765 94.0625 225.477V221.364C93.8049 221.576 93.3655 221.773 92.7443 221.955C92.1383 222.136 91.4564 222.295 90.6989 222.432C89.9413 222.568 89.1913 222.689 88.4489 222.795C87.7064 222.902 87.0625 222.992 86.517 223.068C85.2898 223.235 84.1913 223.508 83.2216 223.886C82.2519 224.265 81.4867 224.795 80.9261 225.477C80.3655 226.144 80.0852 227.008 80.0852 228.068C80.0852 229.583 80.6383 230.727 81.7443 231.5C82.8504 232.273 84.2595 232.659 85.9716 232.659ZM127.972 203.091V209.455H107.903V203.091H127.972ZM112.858 194.727H121.085V227.5C121.085 228.606 121.252 229.455 121.585 230.045C121.934 230.621 122.388 231.015 122.949 231.227C123.509 231.439 124.131 231.545 124.812 231.545C125.328 231.545 125.797 231.508 126.222 231.432C126.661 231.356 126.994 231.288 127.222 231.227L128.608 237.659C128.169 237.811 127.54 237.977 126.722 238.159C125.919 238.341 124.934 238.447 123.767 238.477C121.706 238.538 119.85 238.227 118.199 237.545C116.547 236.848 115.237 235.773 114.267 234.318C113.313 232.864 112.843 231.045 112.858 228.864V194.727ZM143.83 217.545V238H135.602V191.455H143.648V209.023H144.057C144.875 207.053 146.14 205.5 147.852 204.364C149.58 203.212 151.777 202.636 154.443 202.636C156.867 202.636 158.981 203.144 160.784 204.159C162.587 205.174 163.981 206.659 164.966 208.614C165.966 210.568 166.466 212.955 166.466 215.773V238H158.239V217.045C158.239 214.697 157.633 212.871 156.42 211.568C155.223 210.25 153.542 209.591 151.375 209.591C149.92 209.591 148.617 209.909 147.466 210.545C146.33 211.167 145.436 212.068 144.784 213.25C144.148 214.432 143.83 215.864 143.83 217.545Z" fill="black"/>
</svg>
